<?xml version="1.0" encoding="UTF-8"?>
<svg viewBox="0 0 24 24" fill="currentColor" xmlns="http://www.w3.org/2000/svg" aria-hidden="true">
  <!-- scale 512→24 (×0.046875) -->
  <g transform="scale(0.046875)">
    <path d="M432.039,24.056C399.962-8.02,347.773-8.018,315.698,24.057l-53.962,53.962l-7.349-7.35
      c-7.997-7.999-20.968-7.999-28.965,0c-7.999,7.999-7.999,20.966,0,28.965l7.353,7.353l-129.409,129.4
      c-3.67,3.67-5.811,8.595-5.989,13.783l-2.824,82.41L75.52,351.613c-7.999,7.999-7.999,20.966,0,28.965
      c7.996,7.997,20.966,8,28.965,0l19.034-19.034l82.409-2.824c5.186-0.177,10.112-2.317,13.781-5.987
      C233.04,339.4,335.275,237.158,349.111,223.322l7.353,7.353c7.997,7.999,20.966,7.999,28.965,0s7.999-20.966,0-28.965l-7.35-7.35
      l53.962-53.962C464.114,108.322,464.114,56.133,432.039,24.056z M196.454,318.056l-60.486,2.073l2.073-60.485l22.976-22.969
      h116.812L196.454,318.056z M318.787,195.712H201.981l59.76-59.758l58.402,58.402L318.787,195.712z M403.075,111.432
      l-53.962,53.961l-58.409-58.411l53.961-53.962c16.104-16.104,42.307-16.104,58.411,0
      C419.178,69.125,419.178,95.328,403.075,111.432z"/>
    <path d="M95.365,427.347c-2.79-3.366-7.937-3.366-10.727,0c-9.602,11.588-28.734,36.449-28.734,50.555
      C55.904,496.734,71.17,512,90.002,512c18.832,0,34.098-15.266,34.098-34.098C124.099,463.796,104.965,438.934,95.365,427.347z"/>
  </g>
</svg>
