<?xml version="1.0" encoding="UTF-8"?>
<svg viewBox="0 0 24 24" fill="currentColor"
     xmlns="http://www.w3.org/2000/svg" aria-hidden="true">
  <!-- normalize 32→24: translate to 0,0 then scale 0.75 -->
  <g transform="scale(0.75) translate(-204,-931)">
    <path d="M234,951c0,1.104-.896,2-2,2h-16c-1.104,0-2-.896-2-2v-16c0-1.104.896-2,2-2h16c1.104,0,2,.896,2,2v16Zm-2-20h-16c-2.209,0-4,1.791-4,4v16c0,2.209,1.791,4,4,4h16c2.209,0,4-1.791,4-4v-16c0-2.209-1.791-4-4-4Zm-6,28c0,1.104-.896,2-2,2h-16c-1.104,0-2-.896-2-2v-16c0-1.104.896-2,2-2h2v-2h-2c-2.209,0-4,1.791-4,4v16c0,2.209,1.791,4,4,4h16c2.209,0,4-1.791,4-4v-2h-2v2Z"/>
  </g>
</svg>
