<?xml version="1.0" encoding="UTF-8"?>
<svg viewBox="0 0 24 24" fill="currentColor"
     xmlns="http://www.w3.org/2000/svg" aria-hidden="true">
  <!-- original 800×800 → 24×24 (×0.03) -->
  <g transform="scale(0.03)">
    <path d="M550 400h50V200H400v50h150z"/>
    <path d="M200 600h200v-50H250V400h-50z"/>
    <path d="M650 700H150c-6.6 0-13.1-1.3-19.1-3.8-6.1-2.5-11.6-6.2-16.2-10.9-4.7-4.6-8.4-10.1-10.9-16.2-2.5-6-3.8-12.5-3.8-19.1V150c0-6.6 1.3-13.1 3.8-19.1 2.5-6.1 6.2-11.6 10.9-16.2 4.6-4.7 10.1-8.4 16.2-10.9 6-2.5 12.5-3.8 19.1-3.8h500c6.6 0 13.1 1.3 19.1 3.8 6.1 2.5 11.6 6.2 16.2 10.9 4.7 4.6 8.4 10.1 10.9 16.2 2.5 6 3.8 12.5 3.8 19.1v500c0 6.6-1.3 13.1-3.8 19.1-2.5 6.1-6.2 11.6-10.9 16.2-4.6 4.7-10.1 8.4-16.2 10.9-6 2.5-12.5 3.8-19.1 3.8zM150 150v500h500V150H150z"/>
    <!-- E glyph -->
    <path d="M479.6 301.6H331.5c-6.6 0-12.1 5.9-12.1 13.3v179.2c0 7.7 5.3 13.9 12.1 13.9h147.6c6.9 0 12.1-6.2 12.1-13.6v-13.8c0-7.4-5.2-13.3-11.8-13.3H368.8v-42.4h96.3c6.6 0 12.1-6.2 12.1-13.6v-13.6c0-7.3-5.5-13.5-12.1-13.5h-96.3v-41.9h111.8c6.6 0 12.1-5.9 12.1-13.5v-13.6c0-7.7-5.5-13.6-12.1-13.6z"/>
  </g>
</svg>
