<?xml version="1.0" encoding="UTF-8"?>
<svg viewBox="0 0 24 24" fill="currentColor"
     xmlns="http://www.w3.org/2000/svg" aria-hidden="true">
  <!-- original 800×800 → 24×24 (×0.03) -->
  <g transform="scale(0.03)">
    <path d="M550 400h50V200H400v50h150z"/>
    <path d="M200 600h200v-50H250V400h-50z"/>
    <path d="M650 700H150c-6.6 0-13.1-1.3-19.1-3.8-6.1-2.5-11.6-6.2-16.2-10.9-4.7-4.6-8.4-10.1-10.9-16.2-2.5-6-3.8-12.5-3.8-19.1V150c0-6.6 1.3-13.1 3.8-19.1 2.5-6.1 6.2-11.6 10.9-16.2 4.6-4.7 10.1-8.4 16.2-10.9 6-2.5 12.5-3.8 19.1-3.8h500c6.6 0 13.1 1.3 19.1 3.8 6.1 2.5 11.6 6.2 16.2 10.9 4.7 4.6 8.4 10.1 10.9 16.2 2.5 6 3.8 12.5 3.8 19.1v500c0 6.6-1.3 13.1-3.8 19.1-2.5 6.1-6.2 11.6-10.9 16.2-4.6 4.7-10.1 8.4-16.2 10.9-6 2.5-12.5 3.8-19.1 3.8zM150 150v500h500V150H150z"/>
    <!-- O glyph -->
    <path d="M387.8 301.4h23.7q12.1 0 23 4.9 10.9 4.5 19.1 12.7 8.2 8.2 12.8 19.4 4.8 10.9 4.8 23.4v86.1q0 12.5-4.8 23.4-4.6 10.9-12.8 19.1-8.2 8.2-19.1 13-10.9 4.6-23 4.6h-23.7q-12.4 0-23.4-4.6-10.9-4.8-19.1-13-7.9-8.2-12.7-19.1-4.9-10.9-4.9-23.4v-86.1q0-12.5 4.9-23.4 4.8-11.2 12.7-19.4 8.2-8.2 19.1-12.7 11-4.9 23.4-4.9zm46.4 144.4v-82.2q0-10.9-6.4-18.5-6-7.6-16.6-7.6h-23.1q-10.6 0-17 7.6-6 7.6-6 18.5v82.2q0 10.9 6 18.8 6.4 7.6 17 7.6h23.1q10.6 0 16.6-7.6 6.4-7.9 6.4-18.8z"/>
  </g>
</svg>
