<?xml version="1.0" encoding="UTF-8"?>
<svg viewBox="0 0 24 24" fill="currentColor"
     xmlns="http://www.w3.org/2000/svg" aria-hidden="true">
  <!-- original 800×800 scaled to 24×24 (×0.03) -->
  <g transform="scale(0.03)">
    <path d="M550 400h50V200H400v50h150v150z"/>
    <path d="M200 600h200v-50H250V400h-50v200z"/>
    <path d="M650 700H150c-6.6 0-13.1-1.3-19.1-3.8-6.1-2.5-11.6-6.2-16.2-10.9-4.7-4.6-8.4-10.1-10.9-16.2-2.5-6-3.8-12.5-3.8-19.1V150c0-6.6 1.3-13.1 3.8-19.1 2.5-6.1 6.2-11.6 10.9-16.2 4.6-4.7 10.1-8.4 16.2-10.9 6-2.5 12.5-3.8 19.1-3.8h500c6.6 0 13.1 1.3 19.1 3.8 6.1 2.5 11.6 6.2 16.2 10.9 4.7 4.6 8.4 10.1 10.9 16.2 2.5 6 3.8 12.5 3.8 19.1v500c0 6.6-1.3 13.1-3.8 19.1-2.5 6.1-6.2 11.6-10.9 16.2-4.6 4.7-10.1 8.4-16.2 10.9-6 2.5-12.5 3.8-19.1 3.8zM150 150v500h500V150H150z"/>
    <!-- B glyph -->
    <path d="M320.5 484.8c0 15 8.2 23.2 23.3 23.2h71.9c46.7 0 74.4-24.3 74.4-61.8 0-26.3-18.9-42.1-43-46.5v-.8c25.5-7.9 36.4-24.6 36.4-45.7 0-29.8-22.7-51.7-66.5-51.7h-73.2c-15.1 0-23.3 8.2-23.3 23.3zm51.4-100.7v-45.1h34.2c20.5 0 28.4 8.2 28.4 22.5 0 14.2-7.9 22.6-28.4 22.6zm0 86.5v-49h36.6c18.9 0 30.9 7.7 30.9 24.1 0 17.5-11.2 24.9-30.9 24.9z"/>
  </g>
</svg>
