<?xml version="1.0" encoding="utf-8"?>
<svg viewBox="0 0 24 24" fill="currentColor" aria-hidden="true" xmlns="http://www.w3.org/2000/svg">
  <path d="M4.495 11.05a8.186 8.186 0 0 0 .695-3.067l.007-.078.965.41a9.254 9.254 0 0 1-.648 2.888zM18.582 5.922l-.81.61c.49.61.92 1.276 1.272 1.98l1-.307a13.602 13.602 0 0 0-1.462-2.283zM14.358 3.792a8.128 8.128 0 0 1 2.02 1.285l.825-.62a9.226 9.226 0 0 0-2.6-1.648zM9.817 3.437a6.581 6.581 0 0 1 1.748-.237 6.919 6.919 0 0 1 .864.063l.245-.985a7.967 7.967 0 0 0-1.109-.078 7.501 7.501 0 0 0-2.023.276zM5.873 18.574a3.676 3.676 0 0 1-2.13-1.012L2.66 17.8A4.49 4.49 0 0 0 5.763 19.576zM3.012 15.674c-.003-.058-.012-.11-.012-.17 0-.594.314-1.01.917-1.756.168-.208.349-.438.53-.682l-1.13-.169A4.135 4.135 0 0 0 2 15.504c0 .136.012.261.022.389zM6.534 6.3a4.422 4.422 0 0 1 1.458-1.97l-.29-1.016a5.53 5.53 0 0 0-2.078 2.599zM21.618 13.322a16.977 16.977 0 0 0-.788-3.266l-.974.299c.26.682.465 1.385.587 2.11zM18.757 17l2.189 4.515-2.894 1.456-2.266-4.621L13 22.17V9.51L23.266 17zm-1.597-1h3.038L14 11.478v7.624l1.954-2.68 2.552 5.201 1.11-.559zM11 18.854a8.011 8.011 0 0 0-2.454-.391c-.229 0-.444.011-.651.026l-.111 1.013c.243-.022.493-.039.763-.039a7.2 7.2 0 0 1 2.453.453z"/>
</svg>

