<?xml version="1.0" encoding="utf-8"?>
<svg viewBox="0 0 24 24" fill="none" aria-hidden="true"
     xmlns="http://www.w3.org/2000/svg"
     stroke="currentColor" stroke-width="1.5" stroke-linecap="round" stroke-linejoin="round">
  <path d="M2 16c0-2.828 0-4.242.879-5.121C3.757 10 5.172 10 8 10h8c2.828 0 4.243 0 5.121.879C22 11.758 22 13.172 22 16s0 4.243-.879 5.121C20.243 22 18.828 22 16 22H8c-2.828 0-4.243 0-5.121-.879C2 20.243 2 18.828 2 16Z"/>
  <circle cx="12" cy="16" r="2"/>
  <path d="M6 10V8C6 4.686 8.686 2 12 2c2.796 0 5.145 1.912 5.811 4.5"/>
</svg>
